<svg width="41" height="41" viewBox="0 0 41 41" fill="none" xmlns="http://www.w3.org/2000/svg">
<path d="M20.5 0.22583C9.32049 0.22583 0.225586 9.32072 0.225586 20.5002C0.225586 31.6797 9.32049 40.7746 20.5 40.7746C31.6795 40.7746 40.7744 31.6797 40.7744 20.5002C40.7744 9.32072 31.6795 0.22583 20.5 0.22583ZM33.7741 7.73073L30.0255 12.6939L26.9671 13.6874C26.5384 13.8268 26.0827 13.7547 25.7175 13.4894C25.3526 13.2241 25.1431 12.8131 25.1431 12.3618V9.87539L29.332 4.32963C30.982 5.2347 32.4793 6.3849 33.7741 7.73073V7.73073ZM35.0123 9.15442C35.4045 9.65477 35.7708 10.1768 36.1101 10.717L33.0907 11.698L35.0123 9.15442ZM25.1431 2.66418C26.0001 2.88768 26.8335 3.17126 27.6377 3.51012L25.1431 6.81316V2.66418ZM23.2974 2.2835V12.3618C23.2974 13.4111 23.7843 14.3661 24.6326 14.9828C25.1974 15.3933 25.9381 15.8042 27.5377 15.4428L37.0296 12.3589C37.8477 14.0128 38.4259 15.8062 38.7152 17.6937L29.2666 20.7636C28.2692 21.088 27.5112 21.846 27.1868 22.8434C26.8628 23.8412 27.0306 24.9001 27.6473 25.7484L33.3915 33.6552C31.0128 35.9873 28.0073 37.6816 24.6533 38.4569L24.7288 34.3901L25.5074 35.4619C25.8069 35.8743 26.3841 35.9656 26.7965 35.6662C27.2089 35.3663 27.3002 34.7895 27.0003 34.3771L23.121 29.0371C22.5043 28.1882 21.5492 27.7018 20.5005 27.7018C19.4512 27.7018 18.4961 28.1882 17.8795 29.0371L12.1486 36.925C10.4707 36.0685 8.94173 34.962 7.60888 33.6552L13.3536 25.7484C13.9698 24.9001 14.1376 23.8412 13.8136 22.8434C13.4892 21.8455 12.7312 21.0876 11.7338 20.7636L2.28518 17.6937C2.57453 15.8062 3.15276 14.0128 3.97083 12.3589L12.1881 15.0289C12.8177 15.1779 13.2243 14.8261 13.3508 14.4363C13.5084 13.9518 13.2431 13.4308 12.7586 13.2736L11.2715 12.7905L7.52477 7.42695C8.84993 6.11141 10.3731 4.99582 12.0453 4.12872L15.8569 9.58508V12.3618C15.8569 12.7795 15.6819 13.1573 15.3637 13.426C14.9744 13.7543 14.9249 14.3368 15.2537 14.7261C15.4363 14.9424 16.1039 15.2323 16.5543 14.8362C17.2714 14.2056 17.7026 13.3188 17.7026 12.3618V2.2835C18.6149 2.14411 19.5492 2.07153 20.5 2.07153C21.4507 2.07153 22.3851 2.14411 23.2974 2.2835V2.2835ZM38.8349 22.3622L34.709 20.9361L38.9051 19.5725C38.9205 19.8802 38.8969 21.7494 38.8349 22.3622ZM33.1882 30.2353L35.5905 31.0654C35.2988 31.4802 34.9912 31.883 34.6677 32.2718L33.1882 30.2353ZM31.294 27.6283L29.1402 24.6636C28.8749 24.2988 28.8028 23.8431 28.9421 23.4139C29.0815 22.9847 29.4079 22.6583 29.8366 22.5189L31.7963 21.8826L38.5518 24.2171C38.1683 26.083 37.5006 27.846 36.598 29.461L31.294 27.6283ZM15.419 35.5629L15.37 38.2016C14.861 38.0536 14.3606 37.8844 13.8703 37.6946L15.419 35.5629ZM2.09484 19.5725L5.28781 20.6103L2.10397 21.5797C2.08283 21.2221 2.07946 19.8797 2.09484 19.5725ZM8.35293 21.6062L11.1628 22.5189C11.592 22.6583 11.9184 22.9847 12.0578 23.4139C12.1972 23.8431 12.1251 24.2988 11.8598 24.6636L10.2525 26.876L4.03427 28.7693C3.20275 27.1212 2.61202 25.3312 2.30777 23.4471L8.35293 21.6062ZM8.45243 29.3533L6.33227 32.2718C5.84153 31.6821 5.38635 31.062 4.97106 30.4136L8.45243 29.3533ZM8.35918 11.8441L4.88983 10.7165C5.30416 10.0576 5.75885 9.42598 6.25104 8.82661L8.35918 11.8441ZM15.8569 6.36183L13.7531 3.35055C14.4356 3.0809 15.1378 2.85163 15.8569 2.66466V6.36183ZM17.208 38.6337L17.3137 32.9558L19.3724 30.1219C19.6377 29.7571 20.0486 29.5475 20.5 29.5475C20.9513 29.5475 21.3623 29.7571 21.6276 30.1219L22.9287 31.9128L22.8009 38.7856C22.0467 38.8798 21.2791 38.9289 20.5 38.9289C19.3767 38.9289 18.2765 38.8274 17.208 38.6337V38.6337Z" fill="#02133C"/>
</svg>
